<svg id="Layer_1" data-name="Layer 1" xmlns="http://www.w3.org/2000/svg" viewBox="0 0 91.41 95.85"><defs><style>.cls-1,.cls-3{fill:#fff;}.cls-1{stroke:#58595b;stroke-miterlimit:10;}.cls-2{fill:#595b5c;}</style></defs><title>chat icon</title><circle class="cls-1" cx="45.71" cy="45.71" r="45.21"/><polyline class="cls-1" points="14.87 78.05 16.37 95.07 30.75 87.85"/><path class="cls-2" d="M305.33,206.9a18,18,0,1,1-8.83-15.49c0,.22.39.47.39.7l2.52,7.76,5.09,2.58.39.48A18.43,18.43,0,0,1,305.33,206.9Z" transform="translate(-242.63 -172.21)"/><circle class="cls-3" cx="44.21" cy="34.8" r="8.17"/><path class="cls-2" d="M304.89,191.54V203h-8.44V191.54a4.77,4.77,0,0,1,.05-.66,4.22,4.22,0,0,1,8.39.66Z" transform="translate(-242.63 -172.21)"/><path class="cls-2" d="M277.3,229.72c2.73,2.52,10.46,8,19.62.3a5.57,5.57,0,0,1,5.12-1.19A3.83,3.83,0,0,1,305,233a6.92,6.92,0,0,1-1.45,4c-2.12,2.79-7.72,7.83-20,6.72l-1.11-.09c-2-.14-11-1.22-12.56-9.46a5.22,5.22,0,0,1,.63-3.71,4.21,4.21,0,0,1,2.45-1.86A4.68,4.68,0,0,1,277.3,229.72Z" transform="translate(-242.63 -172.21)"/></svg>